<svg xmlns="http://www.w3.org/2000/svg" width="400" height="700"><rect width="400" height="700" x="0" y="0" fill="#FFFFFF" id="background"/><g transform="translate(20,30)" id="visualization"><g><rect x="0" y="12.5" height="39.15112210417135" width="5" fill="black"><title>Indonesia: 10075310</title></rect><rect x="365" y="0" height="39.15112210417135" width="5" fill="black"><title>Jakarta: 10075310</title></rect><rect x="365" y="44.15112210417135" height="40.67472420334491" width="5" fill="black"><title>Shenzhen: 10467400</title></rect><rect x="365" y="89.82584630751626" height="48.34916886811868" width="5" fill="black"><title>Mumbai: 12442373</title></rect><rect x="365" y="143.17501517563494" height="50.8288333245938" width="5" fill="black"><title>Guangzhou: 13080500</title></rect><rect x="0" y="56.65112210417135" height="52.512314749351845" width="5" fill="black"><title>Japan: 13513734</title></rect><rect x="365" y="199.00384850022874" height="52.51231474935179" width="5" fill="black"><title>Tokyo: 13513734</title></rect><rect x="365" y="256.51616324958053" height="59.06488792735951" width="5" fill="black"><title>Tianjin: 15200000</title></rect><rect x="365" y="320.58105117694004" height="65.23538511158705" width="5" fill="black"><title>Delhi: 16787941</title></rect><rect x="365" y="390.8164362885271" height="83.60790320033334" width="5" fill="black"><title>Beijing: 21516000</title></rect><rect x="0" y="114.1634368535232" height="91.31742541400973" width="5" fill="black"><title>Pakistan: 23500000</title></rect><rect x="365" y="479.4243394888604" height="91.31742541400973" width="5" fill="black"><title>Karachi: 23500000</title></rect><rect x="365" y="575.7417649028702" height="94.25823509712984" width="5" fill="black"><title>Shanghai: 24256800</title></rect><rect x="0" y="210.48086226753293" height="113.58455397970567" width="5" fill="black"><title>India: 29230314</title></rect><rect x="0" y="329.0654162472386" height="328.4345837527614" width="5" fill="black"><title>China: 84520700</title></rect></g><g fill="none" stroke-opacity="1"><g style="mix-blend-mode: multiply;"><path d="M5,610.3708824514351C185,610.3708824514351,185,622.8708824514351,365,622.8708824514351" stroke="#1f77b4" stroke-width="94.25823509712984"/><title>China → Shanghai: 24256800</title></g><g style="mix-blend-mode: multiply;"><path d="M5,159.82214956052806C185,159.82214956052806,185,525.0830521958653,365,525.0830521958653" stroke="#9467bd" stroke-width="91.31742541400973"/><title>Pakistan → Karachi: 23500000</title></g><g style="mix-blend-mode: multiply;"><path d="M5,521.4378133027035C185,521.4378133027035,185,432.62038788869376,365,432.62038788869376" stroke="#1f77b4" stroke-width="83.60790320033334"/><title>China → Beijing: 21516000</title></g><g style="mix-blend-mode: multiply;"><path d="M5,291.44772369144516C185,291.44772369144516,185,353.1987437327336,365,353.1987437327336" stroke="#ff7f0e" stroke-width="65.23538511158706"/><title>India → Delhi: 16787941</title></g><g style="mix-blend-mode: multiply;"><path d="M5,450.10141773885704C185,450.10141773885704,185,286.04860721326025,365,286.04860721326025" stroke="#1f77b4" stroke-width="59.064887927359486"/><title>China → Tianjin: 15200000</title></g><g style="mix-blend-mode: multiply;"><path d="M5,82.90727947884724C185,82.90727947884724,185,225.26000587490464,365,225.26000587490464" stroke="#d62728" stroke-width="52.5123147493518"/><title>Japan → Tokyo: 13513734</title></g><g style="mix-blend-mode: multiply;"><path d="M5,395.1545571128804C185,395.1545571128804,185,168.58943183793184,365,168.58943183793184" stroke="#1f77b4" stroke-width="50.8288333245938"/><title>China → Guangzhou: 13080500</title></g><g style="mix-blend-mode: multiply;"><path d="M5,234.65544670159227C185,234.65544670159227,185,114.00043074157558,365,114.00043074157558" stroke="#ff7f0e" stroke-width="48.34916886811866"/><title>India → Mumbai: 12442373</title></g><g style="mix-blend-mode: multiply;"><path d="M5,349.40277834891106C185,349.40277834891106,185,64.4884842058438,365,64.4884842058438" stroke="#1f77b4" stroke-width="40.674724203344915"/><title>China → Shenzhen: 10467400</title></g><g style="mix-blend-mode: multiply;"><path d="M5,32.07556105208567C185,32.07556105208567,185,19.575561052085668,365,19.575561052085668" stroke="#2ca02c" stroke-width="39.151122104171336"/><title>Indonesia → Jakarta: 10075310</title></g></g><g><text x="9" y="32.075561052085675" text-anchor="start"><tspan alignment-baseline="middle" x="9" style="font-family: Arial, sans-serif; font-size: 10px; fill: black; font-weight: bold;">Indonesia</tspan></text><text x="361" y="19.575561052085675" text-anchor="end"><tspan alignment-baseline="middle" x="361" style="font-family: Arial, sans-serif; font-size: 10px; fill: black; font-weight: bold;">Jakarta</tspan></text><text x="361" y="64.4884842058438" text-anchor="end"><tspan alignment-baseline="middle" x="361" style="font-family: Arial, sans-serif; font-size: 10px; fill: black; font-weight: bold;">Shenzhen</tspan></text><text x="361" y="114.0004307415756" text-anchor="end"><tspan alignment-baseline="middle" x="361" style="font-family: Arial, sans-serif; font-size: 10px; fill: black; font-weight: bold;">Mumbai</tspan></text><text x="361" y="168.58943183793184" text-anchor="end"><tspan alignment-baseline="middle" x="361" style="font-family: Arial, sans-serif; font-size: 10px; fill: black; font-weight: bold;">Guangzhou</tspan></text><text x="9" y="82.90727947884727" text-anchor="start"><tspan alignment-baseline="middle" x="9" style="font-family: Arial, sans-serif; font-size: 10px; fill: black; font-weight: bold;">Japan</tspan></text><text x="361" y="225.26000587490464" text-anchor="end"><tspan alignment-baseline="middle" x="361" style="font-family: Arial, sans-serif; font-size: 10px; fill: black; font-weight: bold;">Tokyo</tspan></text><text x="361" y="286.0486072132603" text-anchor="end"><tspan alignment-baseline="middle" x="361" style="font-family: Arial, sans-serif; font-size: 10px; fill: black; font-weight: bold;">Tianjin</tspan></text><text x="361" y="353.19874373273353" text-anchor="end"><tspan alignment-baseline="middle" x="361" style="font-family: Arial, sans-serif; font-size: 10px; fill: black; font-weight: bold;">Delhi</tspan></text><text x="361" y="432.62038788869376" text-anchor="end"><tspan alignment-baseline="middle" x="361" style="font-family: Arial, sans-serif; font-size: 10px; fill: black; font-weight: bold;">Beijing</tspan></text><text x="9" y="159.82214956052806" text-anchor="start"><tspan alignment-baseline="middle" x="9" style="font-family: Arial, sans-serif; font-size: 10px; fill: black; font-weight: bold;">Pakistan</tspan></text><text x="361" y="525.0830521958653" text-anchor="end"><tspan alignment-baseline="middle" x="361" style="font-family: Arial, sans-serif; font-size: 10px; fill: black; font-weight: bold;">Karachi</tspan></text><text x="361" y="622.8708824514351" text-anchor="end"><tspan alignment-baseline="middle" x="361" style="font-family: Arial, sans-serif; font-size: 10px; fill: black; font-weight: bold;">Shanghai</tspan></text><text x="9" y="267.27313925738576" text-anchor="start"><tspan alignment-baseline="middle" x="9" style="font-family: Arial, sans-serif; font-size: 10px; fill: black; font-weight: bold;">India</tspan></text><text x="9" y="493.2827081236193" text-anchor="start"><tspan alignment-baseline="middle" x="9" style="font-family: Arial, sans-serif; font-size: 10px; fill: black; font-weight: bold;">China</tspan></text></g><g><text x="2.5" y="8.5" text-anchor="middle" style="font-family: Arial, sans-serif; font-size: 12px; fill: rgb(123, 123, 123); font-weight: bold;">Country</text><text x="367.5" y="-4" text-anchor="middle" style="font-family: Arial, sans-serif; font-size: 12px; fill: rgb(123, 123, 123); font-weight: bold;">City</text></g></g></svg>