<svg xmlns="http://www.w3.org/2000/svg" width="400" height="600"><rect width="400" height="600" x="0" y="0" fill="#FFFFFF" id="background"/><g id="viz"><g transform="translate(0,0)"><g transform="translate(10,20)"><g><path fill="#2ca02c" d="M0,373.66L4.222222222222222,373.555C8.444444444444445,373.45,16.88888888888889,373.24,25.333333333333332,388.5116666666667C33.77777777777778,403.7833333333333,42.22222222222222,434.5366666666667,50.666666666666664,420.87166666666667C59.11111111111111,407.20666666666665,67.55555555555556,349.1233333333333,76,335.9983333333333C84.44444444444444,322.8733333333333,92.88888888888887,354.70666666666665,101.33333333333333,370.1333333333334C109.77777777777777,385.56,118.22222222222221,384.58,126.66666666666667,368.395C135.11111111111111,352.21000000000004,143.55555555555554,320.82,152,320.72666666666663C160.44444444444446,320.63333333333327,168.88888888888889,351.8366666666666,177.33333333333334,368.67499999999995C185.7777777777778,385.5133333333333,194.2222222222222,387.9866666666667,202.66666666666666,390.285C211.1111111111111,392.5833333333333,219.55555555555554,394.7066666666667,228,404.98500000000007C236.44444444444443,415.2633333333333,244.88888888888889,433.6966666666667,253.33333333333334,431.41C261.77777777777777,429.1233333333333,270.2222222222222,406.1166666666666,278.66666666666663,394.625C287.1111111111111,383.1333333333334,295.55555555555554,383.1566666666667,304,368.1383333333333C312.44444444444446,353.12000000000006,320.8888888888889,323.06,329.33333333333337,324.1566666666667C337.7777777777778,325.25333333333333,346.22222222222223,357.50666666666666,354.6666666666667,369.3983333333333C363.11111111111114,381.28999999999996,371.5555555555556,372.82,375.7777777777778,368.58500000000004L380,364.35L380,378.91L375.77777777777777,406.945C371.5555555555556,434.98,363.11111111111114,491.05,354.6666666666667,502.4216666666666C346.22222222222223,513.7933333333334,337.7777777777778,480.4666666666667,329.33333333333337,477.0133333333333C320.8888888888889,473.55999999999995,312.44444444444446,499.98,304,515.3483333333332C295.55555555555554,530.7166666666667,287.1111111111111,535.0333333333333,278.66666666666663,525.105C270.2222222222222,515.1766666666666,261.77777777777777,491.00333333333333,253.33333333333334,491.82C244.88888888888889,492.6366666666666,236.44444444444443,518.4433333333333,228,531.755C219.55555555555554,545.0666666666667,211.1111111111111,545.8833333333333,202.66666666666663,544.775C194.2222222222222,543.6666666666666,185.7777777777778,540.6333333333333,177.33333333333334,522.3950000000001C168.88888888888889,504.1566666666667,160.44444444444446,470.7133333333333,152,470.76C143.55555555555554,470.8066666666666,135.11111111111111,504.3433333333333,126.66666666666667,522.4183333333334C118.22222222222221,540.4933333333333,109.77777777777777,543.1066666666667,101.33333333333333,526.3033333333334C92.88888888888887,509.5,84.44444444444444,473.28000000000003,76,462.41833333333335C67.55555555555556,451.5566666666667,59.11111111111111,466.05333333333334,50.66666666666666,455.38166666666666C42.22222222222222,444.71000000000004,33.77777777777778,408.86999999999995,25.333333333333332,391.055C16.88888888888889,373.24,8.444444444444445,373.45,4.222222222222222,373.555L0,373.66Z"><title>South Korea</title></path><path fill="#1f77b4" d="M0,185.34L4.222222222222222,216.455C8.444444444444445,247.57000000000002,16.88888888888889,309.8,25.333333333333332,291.8183333333333C33.77777777777778,273.83666666666664,42.22222222222222,175.64333333333332,50.666666666666664,186.6483333333333C59.11111111111111,197.65333333333334,67.55555555555556,317.8566666666666,76,306.995C84.44444444444444,296.1333333333334,92.88888888888887,154.2066666666667,101.33333333333333,84.55000000000004C109.77777777777777,14.893333333333379,118.22222222222221,17.506666666666714,126.66666666666667,32.568333333333364C135.11111111111111,47.63000000000002,143.55555555555554,75.13999999999999,152,106.64333333333332C160.44444444444446,138.14666666666662,168.88888888888889,173.64333333333332,177.33333333333334,190.225C185.7777777777778,206.80666666666664,194.2222222222222,204.47333333333327,202.66666666666666,205.0683333333333C211.1111111111111,205.6633333333333,219.55555555555554,209.18666666666664,228,221.86833333333334C236.44444444444443,234.55000000000004,244.88888888888889,256.39000000000004,253.33333333333334,255.62C261.77777777777777,254.85000000000002,270.2222222222222,231.47000000000003,278.66666666666663,221.82166666666672C287.1111111111111,212.17333333333337,295.55555555555554,216.2566666666667,304,256.26500000000004C312.44444444444446,296.27333333333337,320.8888888888889,372.2066666666667,329.33333333333337,371.32C337.7777777777778,370.43333333333334,346.22222222222223,292.7266666666667,354.6666666666667,281.18833333333333C363.11111111111114,269.65000000000003,371.5555555555556,324.28000000000003,375.7777777777778,351.595L380,378.91L380,378.91L375.77777777777777,380.55166666666673C371.5555555555556,382.1933333333333,363.11111111111114,385.4766666666667,354.6666666666667,399.6983333333333C346.22222222222223,413.92,337.7777777777778,439.0799999999999,329.33333333333337,437.9833333333333C320.8888888888889,436.8866666666666,312.44444444444446,409.5333333333333,304,395.845C295.55555555555554,382.1566666666667,287.1111111111111,382.1333333333334,278.66666666666663,393.625C270.2222222222222,405.1166666666666,261.77777777777777,428.1233333333333,253.33333333333334,430.41C244.88888888888889,432.6966666666667,236.44444444444443,414.2633333333333,228,403.98500000000007C219.55555555555554,393.7066666666667,211.1111111111111,391.5833333333333,202.66666666666663,389.285C194.2222222222222,386.9866666666667,185.7777777777778,384.5133333333333,177.33333333333334,367.67499999999995C168.88888888888889,350.8366666666666,160.44444444444446,319.63333333333327,152,290.50999999999993C143.55555555555554,261.3866666666666,135.11111111111111,234.34333333333333,126.66666666666667,219.88833333333335C118.22222222222221,205.43333333333337,109.77777777777777,203.56666666666672,101.33333333333333,244.87333333333336C92.88888888888887,286.18000000000006,84.44444444444444,370.66,76,383.06166666666667C67.55555555555556,395.46333333333337,59.11111111111111,335.7866666666667,50.66666666666666,321.93500000000006C42.22222222222222,308.08333333333337,33.77777777777778,340.0566666666667,25.333333333333332,356.1483333333333C16.88888888888889,372.24,8.444444444444445,372.45,4.222222222222222,372.555L0,372.66Z"><title>Brazil</title></path><path fill="#ff7f0e" d="M0,373.66L4.222222222222222,342.21166666666676C8.444444444444445,310.7633333333334,16.88888888888889,247.8666666666667,25.333333333333332,231.77500000000006C33.77777777777778,215.6833333333334,42.22222222222222,246.39666666666673,50.666666666666664,232.71166666666673C59.11111111111111,219.02666666666673,67.55555555555556,160.94333333333336,76,148.5416666666667C84.44444444444444,136.14000000000001,92.88888888888887,169.42000000000004,101.33333333333333,186.99333333333337C109.77777777777777,204.56666666666672,118.22222222222221,206.43333333333337,126.66666666666667,245.69500000000002C135.11111111111111,284.95666666666665,143.55555555555554,361.6133333333333,152,330.2966666666666C160.44444444444446,298.97999999999996,168.88888888888889,159.68999999999997,177.33333333333334,88.52833333333335C185.7777777777778,17.36666666666669,194.2222222222222,14.333333333333357,202.66666666666666,13.225000000000017C211.1111111111111,12.116666666666676,219.55555555555554,12.933333333333325,228,26.244999999999994C236.44444444444443,39.556666666666665,244.88888888888889,65.36333333333334,253.33333333333334,66.18C261.77777777777777,66.99666666666667,270.2222222222222,42.8233333333333,278.66666666666663,32.89499999999995C287.1111111111111,22.96666666666661,295.55555555555554,27.28333333333329,304,39.801666666666634C312.44444444444446,52.319999999999986,320.8888888888889,73.04,329.33333333333337,69.58666666666667C337.7777777777778,66.13333333333335,346.22222222222223,38.50666666666668,354.6666666666667,52.895C363.11111111111114,67.28333333333333,371.5555555555556,123.68666666666665,375.7777777777778,151.88833333333332L380,180.08999999999997L380,363.35L375.77777777777777,338.46166666666664C371.5555555555556,313.5733333333333,363.11111111111114,263.7966666666667,354.6666666666667,251.905C346.22222222222223,240.01333333333332,337.7777777777778,266.00666666666666,329.33333333333337,266.8933333333334C320.8888888888889,267.78000000000003,312.44444444444446,243.56000000000003,304,229.40833333333333C295.55555555555554,215.2566666666667,287.1111111111111,211.17333333333337,278.66666666666663,220.8216666666667C270.2222222222222,230.47000000000003,261.77777777777777,253.85000000000002,253.33333333333334,254.62C244.88888888888889,255.39000000000001,236.44444444444443,233.55000000000004,228,220.86833333333334C219.55555555555554,208.18666666666664,211.1111111111111,204.6633333333333,202.66666666666663,204.0683333333333C194.2222222222222,203.47333333333327,185.7777777777778,205.80666666666664,177.33333333333334,248.17499999999995C168.88888888888889,290.5433333333333,160.44444444444446,372.94666666666666,152,402.0233333333333C143.55555555555554,431.09999999999997,135.11111111111111,406.84999999999997,126.66666666666667,395.215C118.22222222222221,383.58,109.77777777777777,384.56,101.33333333333333,369.1333333333334C92.88888888888887,353.70666666666665,84.44444444444444,321.8733333333333,76,334.9983333333333C67.55555555555556,348.1233333333333,59.11111111111111,406.20666666666665,50.66666666666666,419.7049999999999C42.22222222222222,433.2033333333334,33.77777777777778,402.1166666666666,25.333333333333332,387.0116666666666C16.88888888888889,371.9066666666667,8.444444444444445,372.7833333333333,4.222222222222222,373.22166666666664L0,373.66Z"><title>China</title></path></g><g id="xAxis" transform="translate(0,560)" fill="none" font-size="10" font-family="sans-serif" text-anchor="middle"><path class="domain" stroke="currentColor" d="M0,0H380"/><g class="tick" opacity="1" transform="translate(25.333333333333332,0)"><line stroke="currentColor" y2="6"/><text fill="currentColor" y="9" dy="0.71em">2,006</text></g><g class="tick" opacity="1" transform="translate(76,0)"><line stroke="currentColor" y2="6"/><text fill="currentColor" y="9" dy="0.71em">2,008</text></g><g class="tick" opacity="1" transform="translate(126.66666666666666,0)"><line stroke="currentColor" y2="6"/><text fill="currentColor" y="9" dy="0.71em">2,010</text></g><g class="tick" opacity="1" transform="translate(177.33333333333334,0)"><line stroke="currentColor" y2="6"/><text fill="currentColor" y="9" dy="0.71em">2,012</text></g><g class="tick" opacity="1" transform="translate(228,0)"><line stroke="currentColor" y2="6"/><text fill="currentColor" y="9" dy="0.71em">2,014</text></g><g class="tick" opacity="1" transform="translate(278.66666666666663,0)"><line stroke="currentColor" y2="6"/><text fill="currentColor" y="9" dy="0.71em">2,016</text></g><g class="tick" opacity="1" transform="translate(329.33333333333337,0)"><line stroke="currentColor" y2="6"/><text fill="currentColor" y="9" dy="0.71em">2,018</text></g><g class="tick" opacity="1" transform="translate(380,0)"><line stroke="currentColor" y2="6"/><text fill="currentColor" y="9" dy="0.71em">2,020</text></g></g><text y="556" x="380" text-anchor="end" style="font-family: Arial, sans-serif; font-size: 12px; fill: rgb(123, 123, 123); font-weight: bold;">Year</text><text x="4" text-anchor="start" dominant-baseline="hanging" style="font-family: Arial, sans-serif; font-size: 12px; fill: rgb(123, 123, 123); font-weight: bold;">Positive affect</text><g id="labels"><text x="101.33333333333333" y="466.13000000000005" text-anchor="middle" alignment-baseline="middle" style="font-family: Arial, sans-serif; font-size: 10px; fill: black; font-weight: bold; stroke-width: 2px; paint-order: stroke; stroke: white; stroke-linecap: round; stroke-linejoin: round;">South Korea</text><text x="50.666666666666664" y="176.78000000000003" text-anchor="middle" alignment-baseline="middle" style="font-family: Arial, sans-serif; font-size: 10px; fill: black; font-weight: bold; stroke-width: 2px; paint-order: stroke; stroke: white; stroke-linecap: round; stroke-linejoin: round;">Brazil</text><text x="354.6666666666667" y="112.44999999999999" text-anchor="middle" alignment-baseline="middle" style="font-family: Arial, sans-serif; font-size: 10px; fill: black; font-weight: bold; stroke-width: 2px; paint-order: stroke; stroke: white; stroke-linecap: round; stroke-linejoin: round;">China</text></g></g><text x="4" y="4" style="font-family: Arial, sans-serif; font-size: 12px; fill: black; font-weight: bold; dominant-baseline: hanging;"/></g></g></svg>